<?xml version="1.0" encoding="UTF-8"?>
<svg width="70px" height="66px" viewBox="0 0 70 66" version="1.1" xmlns="http://www.w3.org/2000/svg" xmlns:xlink="http://www.w3.org/1999/xlink">
    <!-- Generator: Sketch 46.1 (44463) - http://www.bohemiancoding.com/sketch -->
    <title>Group 4</title>
    <desc>Created with Sketch.</desc>
    <defs></defs>
    <g id="Page-1" stroke="none" stroke-width="1" fill="none" fill-rule="evenodd">
        <g id="Group-4" transform="translate(0.000000, -2.000000)">
            <circle id="Oval" fill="#FD5E53" cx="37.5" cy="37.5" r="23.5"></circle>
            <path d="M14.1243984,52.9497032 C15.8843557,54.46244 17.136406,54.7615573 17.8805492,53.847055 C18.6246923,52.9325528 19.0240721,51.6965534 19.0786884,50.139057 L22.3599384,54.0081976 C21.5263525,53.6116135 20.7359607,53.8575923 19.9887632,54.7461342 C19.2415657,55.634676 18.4943682,56.5232179 17.7471707,57.4117597 L16.3335528,55.8848247 L14.1243984,52.9497032 Z" id="Path-2-Copy" fill="#FD5E53" transform="translate(18.242168, 53.775408) rotate(182.000000) translate(-18.242168, -53.775408) "></path>
            <path d="M58.0923109,36.1742457 C59.9926595,36.4888168 61.4226295,36.3262924 62.3822209,35.6866724 C63.3418123,35.0470524 63.8467381,33.9198633 63.8969984,32.3051051 L67.1782484,36.1742457 C65.481864,36.1350444 64.260073,36.5597147 63.5128755,37.4482565 C62.765678,38.3367984 62.473146,39.7129093 62.6352797,41.5765895 L54.1841078,41.5765895 L58.0923109,36.1742457 Z" id="Path-2-Copy-3" fill="#FD5E53" transform="translate(60.681178, 36.940847) rotate(43.000000) translate(-60.681178, -36.940847) "></path>
            <path d="M35.5387133,58.9483116 C37.4888505,59.2139556 38.9437147,59.0269677 39.9033062,58.3873477 C40.8628976,57.7477277 41.3429291,56.6450021 41.3434008,55.079171 L44.6246508,58.9483116 C42.8784777,58.9580374 41.6317925,59.4071713 40.884595,60.2957131 C40.1373975,61.184255 39.8697598,62.5359024 40.081682,64.3506554 L31.6305101,64.3506554 L35.5387133,58.9483116 Z" id="Path-2-Copy-4" fill="#FD5E53" transform="translate(38.127580, 59.714913) rotate(136.000000) translate(-38.127580, -59.714913) "></path>
            <g id="Group-3" transform="translate(48.000000, 14.000000)" fill="#FD5E53">
                <path d="M4.71875,7.80273437 C5.70976745,9.14216723 6.68507187,9.49207366 7.64466328,8.85245369 C8.60425469,8.21283371 9.89717943,6.57321373 11.5234375,3.93359375 L13.8046875,6.80273438 C11.6843009,7.73867135 10.2505088,8.65091076 9.50331129,9.5394526 C8.75611378,10.4279944 8.67558293,11.6498696 9.26171875,13.2050781 L0.810546875,13.2050781 L4.71875,7.80273437 Z" id="Path-2"></path>
                <circle id="Oval-2" cx="14.5" cy="4.5" r="4.5"></circle>
            </g>
            <g id="Group-3-Copy" transform="translate(45.500000, 12.000000) rotate(-25.000000) translate(-45.500000, -12.000000) translate(36.000000, 5.000000)" fill="#FD5E53">
                <path d="M4.71875,7.80273437 C5.70976745,9.14216723 6.68507187,9.49207366 7.64466328,8.85245369 C8.60425469,8.21283371 9.89717943,6.57321373 11.5234375,3.93359375 L13.8046875,6.80273438 C11.6843009,7.73867135 10.2505088,8.65091076 9.50331129,9.5394526 C8.75611378,10.4279944 8.67558293,11.6498696 9.26171875,13.2050781 L0.810546875,13.2050781 L4.71875,7.80273437 Z" id="Path-2"></path>
                <circle id="Oval-2" cx="14.5" cy="4.5" r="4.5"></circle>
            </g>
            <g id="Group-2" transform="translate(49.000000, 45.000000)" fill="#FD5E53">
                <path d="M3.48095721,6.65896553 C4.37896603,7.32848379 5.30776614,7.34343292 6.26735754,6.70381294 C7.22694895,6.06419297 8.23304467,4.75953029 9.28564471,2.78982491 L12.5668947,6.65896553 C10.4962603,6.83685118 9.08734439,7.37006492 8.34014688,8.25860676 C7.59294936,9.1471486 7.48754239,10.4147161 8.02392596,12.0613093 L-0.427245914,12.0613093 L3.48095721,6.65896553 Z" id="Path-2-Copy-2" transform="translate(6.069824, 7.425567) rotate(86.000000) translate(-6.069824, -7.425567) "></path>
                <circle id="Oval-2" cx="11" cy="14" r="5"></circle>
            </g>
            <g id="Group-2-Copy" transform="translate(27.000000, 12.500000) rotate(-156.000000) translate(-27.000000, -12.500000) translate(19.000000, 3.000000)" fill="#FD5E53">
                <path d="M3.48095721,6.65896553 C4.37896603,7.32848379 5.30776614,7.34343292 6.26735754,6.70381294 C7.22694895,6.06419297 8.23304467,4.75953029 9.28564471,2.78982491 L12.5668947,6.65896553 C10.4962603,6.83685118 9.08734439,7.37006492 8.34014688,8.25860676 C7.59294936,9.1471486 7.48754239,10.4147161 8.02392596,12.0613093 L-0.427245914,12.0613093 L3.48095721,6.65896553 Z" id="Path-2-Copy-2" transform="translate(6.069824, 7.425567) rotate(86.000000) translate(-6.069824, -7.425567) "></path>
                <circle id="Oval-2" cx="11" cy="14" r="5"></circle>
            </g>
            <circle id="Oval-2" fill="#FD5E53" cx="66.5" cy="38.5" r="3.5"></circle>
            <circle id="Oval-2-Copy" fill="#FD5E53" cx="36.5" cy="65.5" r="2.5"></circle>
            <circle id="Oval-2" fill="#FD5E53" cx="14" cy="58" r="5"></circle>
            <circle id="Oval-2" fill="#FD5E53" cx="4.5" cy="37.5" r="4.5"></circle>
            <path d="M14.0141602,35.1181641 C13.707194,35.7848307 12.6705729,36.1181641 10.9042969,36.1181641 C9.13802083,36.1181641 7.03841146,35.7848307 4.60546875,35.1181641 L4.60546875,39.2734375 C7.59049479,38.9287109 9.91796875,38.9287109 11.5878906,39.2734375 C13.2578125,39.6181641 14.3999023,40.7905273 15.0141602,42.7905273 L14.0141602,35.1181641 Z" id="Path-3" fill="#FD5E53"></path>
            <g id="Group" transform="translate(18.045085, 27.438926) rotate(-324.000000) translate(-18.045085, -27.438926) translate(7.045085, 23.938926)" fill="#FD5E53">
                <circle id="Oval-2-Copy-3" cx="3.42705098" cy="3.23664424" r="3"></circle>
                <path d="M17.9740331,1.19407404 C15.0267675,2.52740737 12.6699967,3.19407404 10.9037206,3.19407404 C9.13744457,3.19407404 7.03783519,2.52740737 4.60489248,1.19407404 L4.60489248,5.34934747 C4.94766592,4.68268081 6.94180655,4.34934747 10.5873144,4.34934747 C14.2328222,4.34934747 17.87833,4.68268081 21.5238378,5.34934747 L17.9740331,1.19407404 Z" id="Path-3-Copy"></path>
            </g>
            <g id="flag" transform="translate(39.920923, 34.783538) rotate(-26.000000) translate(-39.920923, -34.783538) translate(26.420923, 18.283538)" fill-rule="nonzero" fill="#FFFFFF">
                <path d="M23.7412264,5.80768126 C23.4817292,5.65673625 23.1611805,5.65673625 22.9017395,5.80768126 C21.8967502,6.36525021 20.7649917,6.65437877 19.6156935,6.64718288 C17.9353144,6.6843429 16.3105338,6.04480828 15.1063679,4.87221571 C13.7162366,3.51146189 11.836681,2.76792419 9.89185761,2.80941299 C8.32559876,2.79586448 6.79425061,3.27219859 5.51205572,4.17185335 L5.51205572,3.76882735 C5.51205572,2.97401895 4.86775391,2.32964959 4.07290327,2.32964959 C3.27805262,2.32964959 2.63375082,2.97396273 2.63375082,3.76882735 L2.63375082,29.6740271 C2.63375082,30.4688355 3.27805262,31.1132049 4.07290327,31.1132049 C4.8676977,31.1132049 5.51205572,30.4688917 5.51205572,29.6740271 L5.51205572,17.2011344 C5.67103709,17.1862367 5.8224854,17.1263646 5.94857989,17.0284331 C7.08989524,16.1879195 8.47457353,15.7432361 9.89185761,15.7619567 C11.5753287,15.7232787 13.203651,16.3628696 14.4107963,17.5369238 C15.7982854,18.89571 17.6741307,19.6391353 19.6157497,19.5997265 C21.1037547,19.6170417 22.5632576,19.1912474 23.8084618,18.3764254 C24.0749299,18.1917497 24.2301447,17.8849687 24.2210376,17.5608726 L24.2210376,6.64718288 C24.2240733,6.30133048 24.04075,5.98060746 23.7412264,5.80768126 Z" id="Shape" transform="translate(13.427584, 16.721427) rotate(-10.000000) translate(-13.427584, -16.721427) "></path>
            </g>
        </g>
    </g>
</svg>